<svg width="82" height="92" viewBox="0 0 82 92" fill="none" xmlns="http://www.w3.org/2000/svg">
<g clip-path="url(#clip0_147_449)">
<path d="M64.6347 11.4964H50.5729C49.16 7.0511 45.4595 3.83212 41.0862 3.83212C36.7129 3.83212 33.0124 7.0511 31.5995 11.4964H17.5377C13.8372 11.4964 10.8096 14.9453 10.8096 19.1606V72.8102C10.8096 77.0256 13.8372 80.4745 17.5377 80.4745H64.6347C68.3352 80.4745 71.3628 77.0256 71.3628 72.8102V19.1606C71.3628 14.9453 68.3352 11.4964 64.6347 11.4964ZM41.0862 11.4964C42.9364 11.4964 44.4503 13.2208 44.4503 15.3285C44.4503 17.4361 42.9364 19.1606 41.0862 19.1606C39.236 19.1606 37.7221 17.4361 37.7221 15.3285C37.7221 13.2208 39.236 11.4964 41.0862 11.4964ZM47.8144 65.146H24.2659V57.4818H47.8144V65.146ZM57.9066 49.8175H24.2659V42.1533H57.9066V49.8175ZM57.9066 34.4891H24.2659V26.8248H57.9066V34.4891Z" fill="#323232"/>
</g>
<defs>
<clipPath id="clip0_147_449">
<rect width="80.7377" height="91.9708" fill="white" transform="translate(0.717285)"/>
</clipPath>
</defs>
</svg>
