<svg width="48" height="48" viewBox="0 0 48 48" fill="none" xmlns="http://www.w3.org/2000/svg">
<g opacity="0.7">
<path fill-rule="evenodd" clip-rule="evenodd" d="M25.6327 14.3673L31.1716 8.82837C32.5049 7.49504 33.1716 6.82837 34 6.82837C34.8284 6.82837 35.4951 7.49504 36.8284 8.82837L39.1716 11.1715C40.5049 12.5048 41.1716 13.1715 41.1716 13.9999C41.1716 14.8284 40.5049 15.495 39.1716 16.8284L33.6759 22.3241C30.3593 20.3848 27.5957 17.6417 25.6327 14.3673ZM24.1785 15.8215L8.8564 31.1436C8.43134 31.5686 8.21881 31.7812 8.07907 32.0423C7.93934 32.3033 7.88039 32.5981 7.7625 33.1875L6.1471 41.2645C6.08058 41.5971 6.04732 41.7634 6.14193 41.858C6.23653 41.9526 6.40282 41.9194 6.73537 41.8529L6.73542 41.8529L6.73545 41.8529L14.8124 40.2375L14.8125 40.2374C15.4019 40.1196 15.6966 40.0606 15.9577 39.9209C16.2188 39.7812 16.4313 39.5686 16.8563 39.1436L16.8564 39.1436L16.8564 39.1436L32.2179 23.7821C28.9521 21.7787 26.2028 19.0487 24.1785 15.8215Z" fill="#012235" fill-opacity="0.86"/>
</g>
</svg>
