<svg width="100" height="100" viewBox="0 0 100 100" fill="none" xmlns="http://www.w3.org/2000/svg">
<g clip-path="url(#clip0_147_440)">
<path d="M37.5002 54.1667C46.7049 54.1667 54.1668 46.7047 54.1668 37.5C54.1668 28.2952 46.7049 20.8333 37.5002 20.8333C28.2954 20.8333 20.8335 28.2952 20.8335 37.5C20.8335 46.7047 28.2954 54.1667 37.5002 54.1667Z" fill="#323232"/>
<path d="M37.4998 62.5C26.3748 62.5 4.1665 68.0833 4.1665 79.1667V87.5H70.8332V79.1667C70.8332 68.0833 48.6248 62.5 37.4998 62.5ZM69.8332 22.3333L62.8332 29.375C66.3332 34.2917 66.3332 40.6667 62.8332 45.5833L69.8332 52.625C78.2498 44.2083 78.2498 31.5 69.8332 22.3333ZM83.6248 8.33333L76.8332 15.125C88.3748 27.7083 88.3748 46.625 76.8332 59.875L83.6248 66.6667C99.8748 50.4583 99.9165 25.2083 83.6248 8.33333Z" fill="#323232"/>
</g>
<defs>
<clipPath id="clip0_147_440">
<rect width="100" height="100" fill="white"/>
</clipPath>
</defs>
</svg>
