<svg width="40" height="40" viewBox="0 0 40 40" fill="none" xmlns="http://www.w3.org/2000/svg">
<path d="M32.4001 21.6499L32.3834 21.6833C32.4501 21.1333 32.5168 20.5666 32.5168 19.9999C32.5168 19.4333 32.4668 18.8999 32.4001 18.3499L32.4168 18.3833L36.4834 15.1833L32.4334 8.14992L27.6501 10.0833L27.6668 10.0999C26.8001 9.43325 25.8501 8.86659 24.8168 8.43325H24.8334L24.0668 3.33325H15.9501L15.2168 8.44992H15.2334C14.2001 8.88325 13.2501 9.44992 12.3834 10.1166L12.4001 10.0999L7.60011 8.14992L3.53345 15.1833L7.60011 18.3833L7.61678 18.3499C7.55011 18.8999 7.50011 19.4333 7.50011 19.9999C7.50011 20.5666 7.55011 21.1333 7.63345 21.6833L7.61678 21.6499L4.11678 24.3999L3.56678 24.8333L7.61678 31.8333L12.4168 29.9166L12.3834 29.8499C13.2668 30.5333 14.2168 31.0999 15.2668 31.5333H15.2168L15.9668 36.6666H24.0501C24.0501 36.6666 24.1001 36.3666 24.1501 35.9666L24.7834 31.5499H24.7668C25.8001 31.1166 26.7668 30.5499 27.6501 29.8666L27.6168 29.9333L32.4168 31.8499L36.4668 24.8499C36.4668 24.8499 36.2334 24.6499 35.9168 24.4166L32.4001 21.6499ZM20.0001 25.8333C16.7834 25.8333 14.1668 23.2166 14.1668 19.9999C14.1668 16.7833 16.7834 14.1666 20.0001 14.1666C23.2168 14.1666 25.8334 16.7833 25.8334 19.9999C25.8334 23.2166 23.2168 25.8333 20.0001 25.8333Z" fill="#33363F"/>
</svg>
