<svg width="40" height="40" viewBox="0 0 40 40" fill="none" xmlns="http://www.w3.org/2000/svg">
<path d="M11.6667 11.8865V7.94529C11.6667 5.7994 11.6667 4.72645 12.3563 4.12836C13.0459 3.53028 14.1081 3.68202 16.2324 3.98549L29.8486 5.93066C32.3047 6.28154 33.5328 6.45697 34.2664 7.30287C35.0001 8.14876 35.0001 9.38929 35.0001 11.8704V28.1295C35.0001 30.6105 35.0001 31.8511 34.2664 32.697C33.5328 33.5429 32.3047 33.7183 29.8486 34.0692L16.2324 36.0143C14.1081 36.3178 13.0459 36.4696 12.3563 35.8715C11.6667 35.2734 11.6667 34.2004 11.6667 32.0545V28.4432" stroke="#33363F" stroke-width="2"/>
<path d="M26.6667 20.0001L27.4476 19.3754L27.9474 20.0001L27.4476 20.6248L26.6667 20.0001ZM6.66675 21.0001C6.11446 21.0001 5.66675 20.5524 5.66675 20.0001C5.66675 19.4478 6.11446 19.0001 6.66675 19.0001V21.0001ZM20.781 11.0421L27.4476 19.3754L25.8859 20.6248L19.2192 12.2914L20.781 11.0421ZM27.4476 20.6248L20.781 28.9581L19.2192 27.7087L25.8859 19.3754L27.4476 20.6248ZM26.6667 21.0001H6.66675V19.0001H26.6667V21.0001Z" fill="#33363F"/>
</svg>
